<svg xmlns="http://www.w3.org/2000/svg" xmlns:xlink="http://www.w3.org/1999/xlink" width="200" height="200" class="icon" p-id="1604" t="1717510526754" version="1.1" viewBox="0 0 1024 1024"><path fill="#F55300" d="M512 512m-512 0a512 512 0 1 0 1024 0 512 512 0 1 0-1024 0Z" p-id="1605"/><path fill="#F9F9F9" d="M258.56 358.912l434.432 434.432a51.2 51.2 0 0 0 72.3968-72.3968L330.9568 286.5152A51.2 51.2 0 1 0 258.56 358.912z" p-id="1606"/><path fill="#F9F9F9" d="M258.56 712.192l434.432-434.432a51.2 51.2 0 0 1 72.448 72.3968l-434.4832 434.432A51.2 51.2 0 1 1 258.56 712.192z" p-id="1607"/></svg>